<svg width="36" height="36" fill="none" xmlns="http://www.w3.org/2000/svg"><path d="M34.2 2.4H30V.6a.6.6 0 00-.6-.6h-4.2a.6.6 0 00-.6.6v1.8H11.4V.6a.6.6 0 00-.6-.6H6.6a.6.6 0 00-.6.6v1.8H1.8a.6.6 0 00-.6.6v32.4a.6.6 0 00.6.6h32.4a.6.6 0 00.6-.6V3a.6.6 0 00-.6-.6zm-8.4-1.2h3v3.6h-3V1.2zm-18.6 0h3v3.6h-3V1.2zM2.4 3.6H6v1.8a.6.6 0 00.6.6h4.2a.6.6 0 00.6-.6V3.6h13.2v1.8a.6.6 0 00.6.6h4.2a.6.6 0 00.6-.6V3.6h3.6V9H2.4V3.6zm0 31.2V10.2h31.2v24.6H2.4z" fill="#C3CAD6"/><path d="M22.8 13.8H6.6v17.4h22.8V13.8h-6.6zM18.6 15h4.2v4.2h-4.2V15zm4.2 9.6h-4.2v-4.2h4.2v4.2zm-9.6-4.2h4.2v4.2h-4.2v-4.2zm0-5.4h4.2v4.2h-4.2V15zm-5.4 0H12v4.2H7.8V15zm0 5.4H12v4.2H7.8v-4.2zM12 30H7.8v-4.2H12V30zm5.4 0h-4.2v-4.2h4.2V30zm5.4 0h-4.2v-4.2h4.2V30zm5.4 0H24v-4.2h4.2V30zm0-5.4H24v-4.2h4.2v4.2zm0-9.6v4.2H24V15h4.2z" fill="#C3CAD6"/></svg>