<svg width="36" height="36" fill="none" xmlns="http://www.w3.org/2000/svg"><path d="M23.348 0H3.9v36h28.2V8.752L23.348 0zm.352 2.048L30.052 8.4H23.7V2.048zM5.1 34.8V1.2h17.4v8.4h8.4v25.2H5.1z" fill="#C3CAD6"/><path d="M25.5 12.6h-9.6a.6.6 0 100 1.2h9.6a.6.6 0 100-1.2zm-11.775-1.669l-2.58 2.065-.82-.82a.6.6 0 10-.85.848l1.2 1.2a.599.599 0 00.8.045l3-2.4a.6.6 0 00-.75-.938zM25.5 19.2h-9.6a.6.6 0 100 1.2h9.6a.6.6 0 100-1.2zm-11.775-1.669l-2.58 2.065-.82-.82a.6.6 0 10-.85.848l1.2 1.2a.599.599 0 00.8.045l3-2.4a.6.6 0 00-.75-.938zM25.5 25.8h-9.6a.6.6 0 100 1.2h9.6a.6.6 0 100-1.2zm-11.775-1.669l-2.58 2.065-.82-.82a.6.6 0 10-.85.848l1.2 1.2a.599.599 0 00.8.045l3-2.4a.6.6 0 00-.75-.938z" fill="#C3CAD6"/></svg>