<svg width="24" height="24" fill="none" xmlns="http://www.w3.org/2000/svg"><path d="M12 0C5.383 0 0 5.383 0 12s5.383 12 12 12 12-5.383 12-12S18.617 0 12 0zm0 23.2C5.824 23.2.8 18.176.8 12 .8 5.824 5.824.8 12 .8 18.176.8 23.2 5.824 23.2 12c0 6.176-5.024 11.2-11.2 11.2z" fill="#3464E0"/><path d="M12.4 10.408V6.352a.4.4 0 10-.8 0v4.056c-.56.146-.998.584-1.143 1.144H7.6a.4.4 0 100 .8h2.857c.179.688.8 1.2 1.543 1.2.882 0 1.6-.718 1.6-1.6 0-.744-.512-1.365-1.2-1.544zm-.4 2.344a.8.8 0 11.002-1.602.8.8 0 01-.002 1.602zm0-8.8a.4.4 0 00.4-.4v-.4a.4.4 0 10-.8 0v.4c0 .22.18.4.4.4zm0 16a.4.4 0 00-.4.4v.4a.4.4 0 10.8 0v-.4a.4.4 0 00-.4-.4zm8.8-8.4h-.4a.4.4 0 100 .8h.4a.4.4 0 100-.8zm-17.2 0h-.4a.4.4 0 100 .8h.4a.4.4 0 100-.8zm14.34-6.106l-.283.283a.4.4 0 10.566.565l.282-.282a.4.4 0 10-.565-.566zM5.778 17.608l-.283.283a.4.4 0 10.566.566l.282-.283a.4.4 0 10-.565-.566zm12.445 0a.4.4 0 10-.566.566l.283.283a.399.399 0 00.565 0 .4.4 0 000-.566l-.282-.283zM6.06 5.446a.4.4 0 10-.565.566l.283.282a.399.399 0 00.565 0 .4.4 0 000-.565l-.282-.283z" fill="#3464E0"/></svg>